<?xml version="1.0" encoding="UTF-8" standalone="no"?>
<svg
   xmlns:dc="http://purl.org/dc/elements/1.1/"
   xmlns:cc="http://creativecommons.org/ns#"
   xmlns:rdf="http://www.w3.org/1999/02/22-rdf-syntax-ns#"
   xmlns:svg="http://www.w3.org/2000/svg"
   xmlns="http://www.w3.org/2000/svg"
   id="svg8"
   version="1.1"
   viewBox="0 0 17.31711 17.31711"
   height="17.31711mm"
   width="17.31711mm">
  <defs
     id="defs2" />
  <metadata
     id="metadata5">
    <rdf:RDF>
      <cc:Work
         rdf:about="">
        <dc:format>image/svg+xml</dc:format>
        <dc:type
           rdf:resource="http://purl.org/dc/dcmitype/StillImage" />
        <dc:title></dc:title>
      </cc:Work>
    </rdf:RDF>
  </metadata>
  <g
     transform="translate(-0.21511938,0.18741779)"
     id="layer1">
    <path
       id="path825"
       d="M 4.8857838,7.2746116 1.972351,2.4267314 6.67512,4.695423 9.0744174,1.4392335 l 1.1969036,3.5736873 5.178373,-1.140114 -2.810605,4.2159084 3.016259,4.3187358 -4.04453,-0.47986 -0.639981,3.666994 L 8.0118716,11.996142 3.8842843,15.077201 5.921055,10.453736 2.0136277,10.11098 Z"
       style="fill:none;stroke:#ffffff;stroke-width:1;stroke-linecap:butt;stroke-linejoin:miter;stroke-miterlimit:4;stroke-dasharray:none;stroke-opacity:1" />
    <path
       id="path825-0"
       d="M 7.0133591,7.6158575 5.2452126,5.41842 7.6283626,6.2572887 8.9629268,4.4460947 9.6286819,6.4338909 12.509055,5.7997239 10.945709,8.1447436 12.623446,10.54696 10.373752,10.280046 9.9543179,12.129371 8.3719057,10.318177 6.9214157,11.25452 7.5892092,8.8898208 5.4538044,8.7752251 Z"
       style="fill:none;stroke:#ffffff;stroke-width:0.7;stroke-linecap:butt;stroke-linejoin:miter;stroke-miterlimit:4;stroke-dasharray:none;stroke-opacity:1" />
  </g>
</svg>
