<?xml version="1.0" encoding="UTF-8" standalone="no"?>
<!DOCTYPE svg PUBLIC "-//W3C//DTD SVG 1.1//EN" "http://www.w3.org/Graphics/SVG/1.1/DTD/svg11.dtd">
<svg version="1.1" xmlns="http://www.w3.org/2000/svg" xmlns:xlink="http://www.w3.org/1999/xlink" preserveAspectRatio="xMidYMid meet" viewBox="0 0 200 200" width="200" height="200"><defs><path d="M167.81 84.93L162.62 81.45L157.78 82.26L155.18 79.5L144.36 75.37L134.44 76.03L110.99 76.03L106.93 75.81L100.39 75.16L97.01 73.64L91.82 71.25L90.09 71.33L90.09 71.33C88.52 71.4 87.65 71.44 87.48 71.45C87.48 71.45 87.48 71.45 87.48 71.45C87.45 71.45 87.32 71.46 87.09 71.47L81.22 74.72L73.33 76.46L65.44 76.03L59 73.54L59 73.54L56.42 72.55L52.64 72.05L52.94 71.67L53.28 67.37L54.62 66.69L61.83 65.17L72.44 61.44L75.14 62.35L79.64 62.35L86.41 61.91L89.79 60.39L89.34 58.66L86.86 59.31L81.22 59.74L76.94 58.88L75.28 58.78L77.84 55.4L80.49 45.98L84.38 43.9L89.12 40.86L93.63 40.21L97.68 41.08L98.13 39.34L95.88 37.82L92.27 36.74L90.69 35.22L91.14 31.31L91.14 28.7L89.79 29.57L88.44 37.39L84.15 39.99L80.41 42.45L79.19 34.13L77.84 33.52L77.84 30.44L77.84 23.06L79.64 17.42L78.97 16.76L76.04 21.32L74.23 28.05L74.23 31.87L71.08 30.44L67.99 29.62L68.15 27.18L68.82 22.41L71.53 19.59C72.74 18.67 73.42 18.17 73.56 18.07C73.11 17.2 71.53 17.85 71.53 17.85C71.33 17.94 70.35 18.37 68.6 19.15L65.89 16.33L64.09 14.59L62.96 15.68L64.76 18.07L65.44 21.1L64.11 28.59L62.06 28.05L57.1 26.1L55.29 20.45L54.17 20.67L53.72 27.18L58.9 30.66L68.82 33.26L75.14 36.3L76.49 45.2L71.98 56.27L67.02 58.66L59.58 60.39L51.46 63.22L47.18 67.34L43.12 65.17L39.21 64.65L39.73 60.61L39.51 56.92L38.16 56.49L38.16 58.22L37.25 62.35L35.92 64.34L32.16 64.56L33.42 61.26L32.74 57.57L31.62 53.01L30.72 52.8L30.72 54.75L31.17 58.22L30.26 61.91L27.78 64.3L26.66 62.13L25.53 58.01L25.75 53.88L24.4 53.88L23.73 56.71L23.73 61.26L24.08 63.64L22.15 63.22L20.79 60.39L18.09 55.4C16.46 54.36 15.56 53.78 15.38 53.67C15.38 53.67 14.48 54.75 15.16 54.97C15.83 55.19 17.86 59.31 17.86 59.31C17.9 59.48 18.09 60.33 18.43 61.86L18.43 61.86L19.22 65.39L23.27 67.34L34.55 68.64L44.92 69.08C45.69 71.29 46.11 72.52 46.2 72.77C45.61 73.04 45 73.37 44.41 73.71C44.41 73.71 44.41 73.71 44.41 73.71C44.34 73.75 44.27 73.79 44.2 73.84C44.17 73.85 44.14 73.87 44.11 73.89C43.96 73.98 43.81 74.07 43.66 74.16C43.62 74.18 43.58 74.2 43.55 74.23C43.4 74.31 43.25 74.4 43.12 74.49C43.09 74.5 43.06 74.52 43.04 74.54C42.91 74.62 42.78 74.7 42.65 74.78C42.64 74.79 42.62 74.8 42.6 74.81C42.47 74.89 42.35 74.97 42.23 75.05C42.2 75.07 42.18 75.08 42.16 75.1C42.04 75.17 41.93 75.24 41.84 75.31C41.82 75.32 41.8 75.33 41.79 75.34C41.69 75.4 41.61 75.46 41.53 75.51C41.52 75.51 41.51 75.52 41.51 75.52C41.43 75.58 41.36 75.62 41.31 75.66C41.29 75.67 41.28 75.68 41.26 75.69C41.21 75.72 41.17 75.75 41.14 75.77C41.13 75.78 41.13 75.78 41.12 75.78C41.1 75.8 41.09 75.81 41.09 75.81C41 76 40.54 76.94 39.73 78.63L36.13 81.45L30.04 85.58L26.88 86.88L26.43 88.62L28.46 91.87L30.94 93.83L32.29 95.34L34.23 95.19L34.23 95.19L35 95.13L38.61 93.61L43.79 92.09L49.66 92.74L55.07 97.95L57.55 104.68L59.3 110.07L59.3 110.07L59.8 111.62L61.61 112.71L62.96 112.28L64.31 114.23L67.92 116.4L74.23 119.01L75.64 120.46L71.3 122.48L66.31 126.6L66.31 126.6L64.99 127.69L62.06 128.99L61.61 132.47L62.96 135.94L68.15 147.23L69.95 149.4L74.68 150.48L81 152.22L80.1 145.49L79.48 144.54L79.48 144.54L77.84 142.02L76.95 141.74L76.95 141.74L71.87 140.16L71.87 140.16L70.85 139.85L69.5 136.59L69.5 134.42L74.91 130.95L83.84 126.9L83.93 130.29L83.25 136.16L85.06 141.15L85.28 145.71L83.48 160.47L81.58 161.99L81.58 161.99L80.77 162.64L78.29 167.2L87.76 167.2L91.14 166.33L93.85 165.46L91.82 160.03L90.47 154.82L90.69 149.4L91.37 142.88L93.18 138.76L93.85 132.03L95.65 122.33L97.09 122.3L97.09 122.3L99.49 122.26L107.15 121.61L114.37 120.09L127.22 116.62L130.84 116.34L136.24 124.65L141.88 129.43L143.68 132.9L143.23 134.85L135.56 144.62L131.05 149.83L127.22 152.22L125.42 153.52L124.74 155.26L124.62 155.38L124.62 155.38L121.58 158.3L120.91 159.82L129.03 160.9L131.8 160.1L131.8 160.1L133.54 159.6L135.11 158.51L137.14 151.57L139.22 148.63L139.22 148.63L141.43 145.49L148.87 138.54L151.58 135.07L151.86 133.68L152.93 135.94L152.7 138.11L148.87 149.61L145.48 156.56L142.78 158.73L141.65 160.47L138.72 162.86L136.92 165.9L145.03 166.98L150 165.24L151.18 164.75L153.15 163.94L155.18 162.64L154.5 158.95L153.6 152.65L155.86 146.79L160.82 136.81L163.07 132.47L163.3 130.73L158.56 125.74L158.53 125.01L158.53 125.01L158.43 122.43L158.43 122.43L158.34 120.31L160.14 114.66L162.62 105.11L162.17 95.56C161.64 93.31 161.35 92.05 161.29 91.8C163.43 92.51 165.78 93.17 165.78 93.17C166.15 93.23 168.03 93.52 171.42 94.04L172.09 92.74L167.81 84.93" id="a1F7eJ1JIp"></path></defs><g><g><g><use xlink:href="#a1F7eJ1JIp" opacity="1" fill="#000000" fill-opacity="1"></use><g><use xlink:href="#a1F7eJ1JIp" opacity="1" fill-opacity="0" stroke="#000000" stroke-width="1" stroke-opacity="0"></use></g></g></g></g></svg>