<?xml version="1.0" encoding="UTF-8" standalone="no"?>
<!DOCTYPE svg PUBLIC "-//W3C//DTD SVG 1.1//EN" "http://www.w3.org/Graphics/SVG/1.1/DTD/svg11.dtd">
<svg version="1.1" xmlns="http://www.w3.org/2000/svg" xmlns:xlink="http://www.w3.org/1999/xlink" preserveAspectRatio="xMidYMid meet" viewBox="0 0 50 50" width="50" height="50"><defs><path d="M48.79 36.72L48.79 36.72L48.69 36.53L46.73 36.2L45.86 34.92L44.65 34.11L42.43 33.51L40.29 33.15L41.89 31.76L43.78 29.4L43.83 28.56L44.31 27.66L44.38 26.38L44.18 24.63L43.64 23.55L43.06 23.47L42.7 22.55L41.6 21.81L41.15 20.26L39.67 18.65L36.61 17.21L36.61 17.21L36.51 17.16L33.18 16.68L33.18 16.68L31.47 16.43L27.03 17.3L25.66 17.98L25.66 17.98L23.4 19.11L23.12 19.58L23.12 19.58L20.98 23.22L19.9 26.45L20.18 28.11L20.18 28.11L20.23 28.41L17.61 27.05L14.18 24.83L12.37 24.09L11.72 24.09L11.26 23.38L9.54 20.76L8.22 18.33L8.4 17.94L8.3 17.37L7.86 17.27L7.42 17.37L7.26 17.8L7.46 18.34L7.76 18.54L7.84 18.52L8.43 20.12L9.21 22.14L10.28 24.4L9.66 24.85L9.46 24.53L7.19 22.71L5.07 21L3.61 19.54L3.42 19.34L3.46 19.32L3.52 18.98L3.39 18.68L3.02 18.54L2.62 18.68L2.48 18.95L2.65 19.38L2.92 19.55L3.15 19.5L4.41 20.95L5.98 22.41L7.39 23.93L8.35 24.88L8.91 25.47C8.24 26.06 7.87 26.38 7.79 26.45C7.8 26.47 7.81 26.51 7.81 26.55C7.73 26.6 7.35 26.86 6.65 27.32L5.45 28.41L5.44 28.4L4.9 28.4L4.63 28.93L4.7 29.47L5.17 29.54L5.71 29.4L5.71 28.93L5.7 28.92C6.99 28.17 7.71 27.75 7.85 27.67C7.86 28.21 7.86 28.73 7.86 28.73C7.91 28.75 8.18 28.81 8.67 28.93L8.36 29.72L8 29.67L7.73 30.28L8 30.68L8.27 30.89L8.67 30.82L8.94 30.15L8.76 29.97L9.2 29.32L9.74 30.08L10.69 31.96L11.02 33.17L11.22 33.98L12.03 34.52L11.96 35.05L12.1 36.06L13.71 36.27L15.31 36.07L15.33 36.13L16.4 36.94L17.82 37.21L19.97 37.21L22.12 37.21L26.49 37.88L31.67 37.74L36.65 37.07L38.73 37.14L44.92 37.41L47.54 37.54L48.95 37.01L48.79 36.72" id="fSy9rqQEe"></path></defs><g><g><g><use xlink:href="#fSy9rqQEe" opacity="1" fill="#000000" fill-opacity="1"></use><g><use xlink:href="#fSy9rqQEe" opacity="1" fill-opacity="0" stroke="#000000" stroke-width="1" stroke-opacity="0"></use></g></g></g></g></svg>