<?xml version="1.0" encoding="UTF-8" standalone="no"?>
<!DOCTYPE svg PUBLIC "-//W3C//DTD SVG 1.1//EN" "http://www.w3.org/Graphics/SVG/1.1/DTD/svg11.dtd">
<svg version="1.1" xmlns="http://www.w3.org/2000/svg" xmlns:xlink="http://www.w3.org/1999/xlink" preserveAspectRatio="xMidYMid meet" viewBox="0 0 200 200" width="200" height="200"><defs><path d="M138.04 153.31L136.73 148.28L135.83 145.86L134.62 145.56L134.52 145.16L134.22 140.02L135.02 132.07L135.83 124.01L135.63 114.35L134.42 108.81L133.86 107.33L133.71 105.89L127.97 101.51L122.39 99.85L115.14 96.07L105.92 90.03L102.45 87.92L100.03 83.23L98.07 77.04L95.68 75.97L94.6 74.48L92.03 72.36L89.31 67.98L85.38 56.81L82.21 45.63L77.68 32.49L76.02 27.05L74.72 25.56L76.93 23.83L77.43 21.01L76.62 20.51L74.51 21.42L72.21 23.03L69.98 21.47L69.78 20.21L71.49 16.88L72.29 16.99L73 16.08L71.19 14.47L68.87 14.57L68.77 15.27L69.27 16.08L68.07 18.29L66.96 20.01L66.53 20.13L66.37 15.98L66.37 15.98L66.35 15.58L67.16 15.17L67.06 14.37L63.33 14.47L62.93 15.17L63.84 15.88L63.84 16.27L63.84 17.69L63.75 20.79L61.82 20.71L60.51 21.72L58.9 24.23L56.39 25.24L52.76 27.25L49.04 30.07L47.63 32.04L48.38 34.3L48.52 34.78L48.52 34.78L48.59 34.99L48.83 35.81L50.19 35.66L55.78 34.91L58.5 35.21L62.58 35.21L64.39 34.6L67.26 37.32L69.52 48.65L70.43 61.64L71.06 63.89L72.05 67.43L72.05 67.43L73.6 72.97L77.08 85.35L77.23 97.59L76.17 105.14L77.83 113.44L79.3 115.33L79.85 122L80.55 128.85L83.27 135.79L83.97 141.73L84.17 144.96L83.97 147.27L83.77 148.78L84.78 150.7L85.48 152.71L85.89 159.36L85.89 171.24L86.09 172.54L84.78 174.46L83.87 177.07L83.37 180.3L83.97 180.9L85.71 180.9L85.68 180.95L85.38 183.07L88.4 183.82L92.33 183.22L93.84 182.61L93.84 181.4L93.68 180.87L93.68 180.87L93.09 178.84L93.77 178.46L93.77 178.46L94.75 177.93L95.8 176.12L94.45 172.04L93.39 160.11L92.93 152.41L94.14 150.75L94.04 150.09L94.04 150.09L93.54 146.67L95.05 134.28L96.86 128.85L97.54 129.35L97.53 129.35L100.94 131.87L111.21 134.28L112.57 133.87L113.68 141.63L116.59 149.69L118.01 154.12L117.3 157.54L114.08 171.24L112.97 176.57L111.86 177.98L110.45 181.1L111.56 181.91L115.08 181.91L116.8 181.4L116.8 180.04L116.8 179.19L117.6 177.68L118.21 176.77L117.4 174.36L117.9 169.72L120.83 161.47L123.54 155.53L124.16 153.39L124.5 155.73L126.01 159.51L125.41 167.81L124.35 176.87L123.74 178.84L122.08 181.4L122.05 181.52L122.05 181.52L121.18 184.73L124.35 185.18L128.28 185.63L129.18 184.12L128.42 180.8L129.94 179.74L129.94 175.67L129.79 169.63L130.39 161.47L130.47 161.09L130.47 161.09L131.75 155.43L130.09 150.75L130.24 138.96L133.41 127.49L134.16 119.68L134.62 123.41L134.01 129.45L133.21 136.7L133.11 142.44L133.97 146L133.51 146.97L134.12 150.49L135.12 154.42L136.43 158.75L136.53 164.19L135.93 166.9L137.54 164.79L138.55 158.05L138.04 153.31" id="b30yQZJ5EU"></path></defs><g><g><g><use xlink:href="#b30yQZJ5EU" opacity="1" fill="#000000" fill-opacity="1"></use><g><use xlink:href="#b30yQZJ5EU" opacity="1" fill-opacity="0" stroke="#000000" stroke-width="1" stroke-opacity="0"></use></g></g></g></g></svg>